<mxfile host="app.diagrams.net" agent="Mozilla/5.0 (Windows NT 10.0; Win64; x64) AppleWebKit/537.36 (KHTML, like Gecko) Chrome/127.0.0.0 Safari/537.36 OPR/113.0.0.0" version="24.7.14">
  <diagram id="C5RBs43oDa-KdzZeNtuy" name="Page-1">
    <mxGraphModel grid="1" page="1" gridSize="10" guides="1" tooltips="1" connect="1" arrows="1" fold="1" pageScale="1" pageWidth="827" pageHeight="1169" math="0" shadow="0">
      <root>
        <mxCell id="WIyWlLk6GJQsqaUBKTNV-0" />
        <mxCell id="WIyWlLk6GJQsqaUBKTNV-1" parent="WIyWlLk6GJQsqaUBKTNV-0" />
        <mxCell id="zkfFHV4jXpPFQw0GAbJ--0" value="Technicien" style="swimlane;fontStyle=2;align=center;verticalAlign=top;childLayout=stackLayout;horizontal=1;startSize=26;horizontalStack=0;resizeParent=1;resizeLast=0;collapsible=1;marginBottom=0;rounded=0;shadow=0;strokeWidth=1;" vertex="1" parent="WIyWlLk6GJQsqaUBKTNV-1">
          <mxGeometry x="-700" y="280" width="160" height="180" as="geometry">
            <mxRectangle x="230" y="140" width="160" height="26" as="alternateBounds" />
          </mxGeometry>
        </mxCell>
        <mxCell id="zkfFHV4jXpPFQw0GAbJ--1" value="Nom" style="text;align=left;verticalAlign=top;spacingLeft=4;spacingRight=4;overflow=hidden;rotatable=0;points=[[0,0.5],[1,0.5]];portConstraint=eastwest;" vertex="1" parent="zkfFHV4jXpPFQw0GAbJ--0">
          <mxGeometry y="26" width="160" height="26" as="geometry" />
        </mxCell>
        <mxCell id="zkfFHV4jXpPFQw0GAbJ--2" value="Téléphone" style="text;align=left;verticalAlign=top;spacingLeft=4;spacingRight=4;overflow=hidden;rotatable=0;points=[[0,0.5],[1,0.5]];portConstraint=eastwest;rounded=0;shadow=0;html=0;" vertex="1" parent="zkfFHV4jXpPFQw0GAbJ--0">
          <mxGeometry y="52" width="160" height="26" as="geometry" />
        </mxCell>
        <mxCell id="zkfFHV4jXpPFQw0GAbJ--3" value="Adresse mail" style="text;align=left;verticalAlign=top;spacingLeft=4;spacingRight=4;overflow=hidden;rotatable=0;points=[[0,0.5],[1,0.5]];portConstraint=eastwest;rounded=0;shadow=0;html=0;" vertex="1" parent="zkfFHV4jXpPFQw0GAbJ--0">
          <mxGeometry y="78" width="160" height="26" as="geometry" />
        </mxCell>
        <mxCell id="zkfFHV4jXpPFQw0GAbJ--4" value="" style="line;html=1;strokeWidth=1;align=left;verticalAlign=middle;spacingTop=-1;spacingLeft=3;spacingRight=3;rotatable=0;labelPosition=right;points=[];portConstraint=eastwest;" vertex="1" parent="zkfFHV4jXpPFQw0GAbJ--0">
          <mxGeometry y="104" width="160" height="8" as="geometry" />
        </mxCell>
        <mxCell id="zkfFHV4jXpPFQw0GAbJ--5" value="Modifier Agenda&#xa;Consulter Agenda" style="text;align=left;verticalAlign=top;spacingLeft=4;spacingRight=4;overflow=hidden;rotatable=0;points=[[0,0.5],[1,0.5]];portConstraint=eastwest;" vertex="1" parent="zkfFHV4jXpPFQw0GAbJ--0">
          <mxGeometry y="112" width="160" height="68" as="geometry" />
        </mxCell>
        <mxCell id="zkfFHV4jXpPFQw0GAbJ--17" value="Agenda" style="swimlane;fontStyle=0;align=center;verticalAlign=top;childLayout=stackLayout;horizontal=1;startSize=26;horizontalStack=0;resizeParent=1;resizeLast=0;collapsible=1;marginBottom=0;rounded=0;shadow=0;strokeWidth=1;" vertex="1" parent="WIyWlLk6GJQsqaUBKTNV-1">
          <mxGeometry x="-430" y="290" width="160" height="170" as="geometry">
            <mxRectangle x="550" y="140" width="160" height="26" as="alternateBounds" />
          </mxGeometry>
        </mxCell>
        <mxCell id="zkfFHV4jXpPFQw0GAbJ--18" value="Liste d&#39;interventions" style="text;align=left;verticalAlign=top;spacingLeft=4;spacingRight=4;overflow=hidden;rotatable=0;points=[[0,0.5],[1,0.5]];portConstraint=eastwest;" vertex="1" parent="zkfFHV4jXpPFQw0GAbJ--17">
          <mxGeometry y="26" width="160" height="26" as="geometry" />
        </mxCell>
        <mxCell id="zkfFHV4jXpPFQw0GAbJ--23" value="" style="line;html=1;strokeWidth=1;align=left;verticalAlign=middle;spacingTop=-1;spacingLeft=3;spacingRight=3;rotatable=0;labelPosition=right;points=[];portConstraint=eastwest;" vertex="1" parent="zkfFHV4jXpPFQw0GAbJ--17">
          <mxGeometry y="52" width="160" height="8" as="geometry" />
        </mxCell>
        <mxCell id="zkfFHV4jXpPFQw0GAbJ--24" value="Contenir interventions" style="text;align=left;verticalAlign=top;spacingLeft=4;spacingRight=4;overflow=hidden;rotatable=0;points=[[0,0.5],[1,0.5]];portConstraint=eastwest;" vertex="1" parent="zkfFHV4jXpPFQw0GAbJ--17">
          <mxGeometry y="60" width="160" height="26" as="geometry" />
        </mxCell>
        <mxCell id="tYXcIxNK_4_2sW7x9YC5-11" value="Ajout Interventions" style="text;align=left;verticalAlign=top;spacingLeft=4;spacingRight=4;overflow=hidden;rotatable=0;points=[[0,0.5],[1,0.5]];portConstraint=eastwest;" vertex="1" parent="zkfFHV4jXpPFQw0GAbJ--17">
          <mxGeometry y="86" width="160" height="26" as="geometry" />
        </mxCell>
        <mxCell id="tYXcIxNK_4_2sW7x9YC5-12" value="Supprimer Interventions" style="text;align=left;verticalAlign=top;spacingLeft=4;spacingRight=4;overflow=hidden;rotatable=0;points=[[0,0.5],[1,0.5]];portConstraint=eastwest;" vertex="1" parent="zkfFHV4jXpPFQw0GAbJ--17">
          <mxGeometry y="112" width="160" height="26" as="geometry" />
        </mxCell>
        <mxCell id="tYXcIxNK_4_2sW7x9YC5-13" value="Modifier Interventions" style="text;align=left;verticalAlign=top;spacingLeft=4;spacingRight=4;overflow=hidden;rotatable=0;points=[[0,0.5],[1,0.5]];portConstraint=eastwest;" vertex="1" parent="zkfFHV4jXpPFQw0GAbJ--17">
          <mxGeometry y="138" width="160" height="26" as="geometry" />
        </mxCell>
        <mxCell id="zkfFHV4jXpPFQw0GAbJ--26" value="" style="endArrow=none;shadow=0;strokeWidth=1;rounded=0;curved=0;endFill=0;edgeStyle=elbowEdgeStyle;elbow=vertical;strokeColor=default;" edge="1" parent="WIyWlLk6GJQsqaUBKTNV-1" source="zkfFHV4jXpPFQw0GAbJ--0" target="zkfFHV4jXpPFQw0GAbJ--17">
          <mxGeometry x="0.5" y="41" relative="1" as="geometry">
            <mxPoint x="-370" y="372" as="sourcePoint" />
            <mxPoint x="-210" y="372" as="targetPoint" />
            <mxPoint x="-40" y="32" as="offset" />
          </mxGeometry>
        </mxCell>
        <mxCell id="zkfFHV4jXpPFQw0GAbJ--27" value="1" style="resizable=0;align=left;verticalAlign=bottom;labelBackgroundColor=none;fontSize=12;" connectable="0" vertex="1" parent="zkfFHV4jXpPFQw0GAbJ--26">
          <mxGeometry x="-1" relative="1" as="geometry">
            <mxPoint y="4" as="offset" />
          </mxGeometry>
        </mxCell>
        <mxCell id="zkfFHV4jXpPFQw0GAbJ--28" value="1" style="resizable=0;align=right;verticalAlign=bottom;labelBackgroundColor=none;fontSize=12;" connectable="0" vertex="1" parent="zkfFHV4jXpPFQw0GAbJ--26">
          <mxGeometry x="1" relative="1" as="geometry">
            <mxPoint x="-7" y="4" as="offset" />
          </mxGeometry>
        </mxCell>
        <mxCell id="zkfFHV4jXpPFQw0GAbJ--29" value="possède" style="text;html=1;resizable=0;points=[];;align=center;verticalAlign=middle;labelBackgroundColor=none;rounded=0;shadow=0;strokeWidth=1;fontSize=12;" connectable="0" vertex="1" parent="zkfFHV4jXpPFQw0GAbJ--26">
          <mxGeometry x="0.5" y="49" relative="1" as="geometry">
            <mxPoint x="-38" y="40" as="offset" />
          </mxGeometry>
        </mxCell>
        <mxCell id="tYXcIxNK_4_2sW7x9YC5-0" value="" style="endArrow=none;html=1;rounded=0;exitX=0.998;exitY=1.177;exitDx=0;exitDy=0;exitPerimeter=0;endFill=0;" edge="1" parent="WIyWlLk6GJQsqaUBKTNV-1" source="zkfFHV4jXpPFQw0GAbJ--24">
          <mxGeometry width="50" height="50" relative="1" as="geometry">
            <mxPoint x="-240" y="370" as="sourcePoint" />
            <mxPoint x="-110" y="380" as="targetPoint" />
            <Array as="points">
              <mxPoint x="-180" y="380" />
            </Array>
          </mxGeometry>
        </mxCell>
        <mxCell id="tYXcIxNK_4_2sW7x9YC5-1" value="Intervention" style="swimlane;fontStyle=2;align=center;verticalAlign=top;childLayout=stackLayout;horizontal=1;startSize=26;horizontalStack=0;resizeParent=1;resizeLast=0;collapsible=1;marginBottom=0;rounded=0;shadow=0;strokeWidth=1;" vertex="1" parent="WIyWlLk6GJQsqaUBKTNV-1">
          <mxGeometry x="-110" y="290" width="160" height="226" as="geometry">
            <mxRectangle x="230" y="140" width="160" height="26" as="alternateBounds" />
          </mxGeometry>
        </mxCell>
        <mxCell id="tYXcIxNK_4_2sW7x9YC5-2" value="Titre" style="text;align=left;verticalAlign=top;spacingLeft=4;spacingRight=4;overflow=hidden;rotatable=0;points=[[0,0.5],[1,0.5]];portConstraint=eastwest;" vertex="1" parent="tYXcIxNK_4_2sW7x9YC5-1">
          <mxGeometry y="26" width="160" height="26" as="geometry" />
        </mxCell>
        <mxCell id="tYXcIxNK_4_2sW7x9YC5-14" value="Description" style="text;align=left;verticalAlign=top;spacingLeft=4;spacingRight=4;overflow=hidden;rotatable=0;points=[[0,0.5],[1,0.5]];portConstraint=eastwest;" vertex="1" parent="tYXcIxNK_4_2sW7x9YC5-1">
          <mxGeometry y="52" width="160" height="26" as="geometry" />
        </mxCell>
        <mxCell id="tYXcIxNK_4_2sW7x9YC5-3" value="Date" style="text;align=left;verticalAlign=top;spacingLeft=4;spacingRight=4;overflow=hidden;rotatable=0;points=[[0,0.5],[1,0.5]];portConstraint=eastwest;rounded=0;shadow=0;html=0;" vertex="1" parent="tYXcIxNK_4_2sW7x9YC5-1">
          <mxGeometry y="78" width="160" height="26" as="geometry" />
        </mxCell>
        <mxCell id="tYXcIxNK_4_2sW7x9YC5-10" value="Heure" style="text;align=left;verticalAlign=top;spacingLeft=4;spacingRight=4;overflow=hidden;rotatable=0;points=[[0,0.5],[1,0.5]];portConstraint=eastwest;rounded=0;shadow=0;html=0;" vertex="1" parent="tYXcIxNK_4_2sW7x9YC5-1">
          <mxGeometry y="104" width="160" height="26" as="geometry" />
        </mxCell>
        <mxCell id="tYXcIxNK_4_2sW7x9YC5-4" value="Statut" style="text;align=left;verticalAlign=top;spacingLeft=4;spacingRight=4;overflow=hidden;rotatable=0;points=[[0,0.5],[1,0.5]];portConstraint=eastwest;rounded=0;shadow=0;html=0;" vertex="1" parent="tYXcIxNK_4_2sW7x9YC5-1">
          <mxGeometry y="130" width="160" height="26" as="geometry" />
        </mxCell>
        <mxCell id="tYXcIxNK_4_2sW7x9YC5-5" value="" style="line;html=1;strokeWidth=1;align=left;verticalAlign=middle;spacingTop=-1;spacingLeft=3;spacingRight=3;rotatable=0;labelPosition=right;points=[];portConstraint=eastwest;" vertex="1" parent="tYXcIxNK_4_2sW7x9YC5-1">
          <mxGeometry y="156" width="160" height="8" as="geometry" />
        </mxCell>
        <mxCell id="tYXcIxNK_4_2sW7x9YC5-6" value="Ajout Fichier&#xa;Ajout Commentaires&#xa;" style="text;align=left;verticalAlign=top;spacingLeft=4;spacingRight=4;overflow=hidden;rotatable=0;points=[[0,0.5],[1,0.5]];portConstraint=eastwest;" vertex="1" parent="tYXcIxNK_4_2sW7x9YC5-1">
          <mxGeometry y="164" width="160" height="62" as="geometry" />
        </mxCell>
        <mxCell id="tYXcIxNK_4_2sW7x9YC5-7" value="1..*" style="resizable=0;align=left;verticalAlign=bottom;labelBackgroundColor=none;fontSize=12;" connectable="0" vertex="1" parent="WIyWlLk6GJQsqaUBKTNV-1">
          <mxGeometry x="-530" y="389" as="geometry">
            <mxPoint x="263" y="-11" as="offset" />
          </mxGeometry>
        </mxCell>
        <mxCell id="tYXcIxNK_4_2sW7x9YC5-8" value="1..*" style="resizable=0;align=left;verticalAlign=bottom;labelBackgroundColor=none;fontSize=12;" connectable="0" vertex="1" parent="WIyWlLk6GJQsqaUBKTNV-1">
          <mxGeometry x="-400" y="389" as="geometry">
            <mxPoint x="263" y="-11" as="offset" />
          </mxGeometry>
        </mxCell>
        <mxCell id="tYXcIxNK_4_2sW7x9YC5-9" value="contient" style="text;html=1;resizable=0;points=[];;align=center;verticalAlign=middle;labelBackgroundColor=none;rounded=0;shadow=0;strokeWidth=1;fontSize=12;" connectable="0" vertex="1" parent="WIyWlLk6GJQsqaUBKTNV-1">
          <mxGeometry x="-240" y="350" as="geometry">
            <mxPoint x="52" y="21" as="offset" />
          </mxGeometry>
        </mxCell>
        <mxCell id="tYXcIxNK_4_2sW7x9YC5-15" value="" style="endArrow=none;html=1;rounded=0;exitX=0.238;exitY=1.023;exitDx=0;exitDy=0;exitPerimeter=0;entryX=1;entryY=0.5;entryDx=0;entryDy=0;endFill=0;" edge="1" parent="WIyWlLk6GJQsqaUBKTNV-1" source="tYXcIxNK_4_2sW7x9YC5-6" target="tYXcIxNK_4_2sW7x9YC5-17">
          <mxGeometry width="50" height="50" relative="1" as="geometry">
            <mxPoint x="-30" y="520" as="sourcePoint" />
            <mxPoint x="-270" y="660" as="targetPoint" />
            <Array as="points">
              <mxPoint x="-70" y="740" />
              <mxPoint x="-170" y="740" />
            </Array>
          </mxGeometry>
        </mxCell>
        <mxCell id="tYXcIxNK_4_2sW7x9YC5-16" value="Fichier" style="swimlane;fontStyle=2;align=center;verticalAlign=top;childLayout=stackLayout;horizontal=1;startSize=26;horizontalStack=0;resizeParent=1;resizeLast=0;collapsible=1;marginBottom=0;rounded=0;shadow=0;strokeWidth=1;" vertex="1" parent="WIyWlLk6GJQsqaUBKTNV-1">
          <mxGeometry x="-430" y="702" width="160" height="108" as="geometry">
            <mxRectangle x="230" y="140" width="160" height="26" as="alternateBounds" />
          </mxGeometry>
        </mxCell>
        <mxCell id="tYXcIxNK_4_2sW7x9YC5-17" value="URL&#xa;&#xa;" style="text;align=left;verticalAlign=top;spacingLeft=4;spacingRight=4;overflow=hidden;rotatable=0;points=[[0,0.5],[1,0.5]];portConstraint=eastwest;" vertex="1" parent="tYXcIxNK_4_2sW7x9YC5-16">
          <mxGeometry y="26" width="160" height="26" as="geometry" />
        </mxCell>
        <mxCell id="zs_j6bo2qMsAs6CfyAJA-0" value="Type" style="text;align=left;verticalAlign=top;spacingLeft=4;spacingRight=4;overflow=hidden;rotatable=0;points=[[0,0.5],[1,0.5]];portConstraint=eastwest;" vertex="1" parent="tYXcIxNK_4_2sW7x9YC5-16">
          <mxGeometry y="52" width="160" height="26" as="geometry" />
        </mxCell>
        <mxCell id="tYXcIxNK_4_2sW7x9YC5-22" value="" style="line;html=1;strokeWidth=1;align=left;verticalAlign=middle;spacingTop=-1;spacingLeft=3;spacingRight=3;rotatable=0;labelPosition=right;points=[];portConstraint=eastwest;" vertex="1" parent="tYXcIxNK_4_2sW7x9YC5-16">
          <mxGeometry y="78" width="160" height="8" as="geometry" />
        </mxCell>
        <mxCell id="tYXcIxNK_4_2sW7x9YC5-24" value="" style="endArrow=none;html=1;rounded=0;entryX=0.5;entryY=0;entryDx=0;entryDy=0;exitX=0.875;exitY=1.065;exitDx=0;exitDy=0;exitPerimeter=0;endFill=0;" edge="1" parent="WIyWlLk6GJQsqaUBKTNV-1" source="tYXcIxNK_4_2sW7x9YC5-6" target="tYXcIxNK_4_2sW7x9YC5-25">
          <mxGeometry width="50" height="50" relative="1" as="geometry">
            <mxPoint x="20" y="580" as="sourcePoint" />
            <mxPoint x="-160" y="820" as="targetPoint" />
            <Array as="points">
              <mxPoint x="30" y="700" />
              <mxPoint x="-30" y="700" />
              <mxPoint x="-30" y="750" />
            </Array>
          </mxGeometry>
        </mxCell>
        <mxCell id="tYXcIxNK_4_2sW7x9YC5-25" value="Commentaire" style="swimlane;fontStyle=2;align=center;verticalAlign=top;childLayout=stackLayout;horizontal=1;startSize=26;horizontalStack=0;resizeParent=1;resizeLast=0;collapsible=1;marginBottom=0;rounded=0;shadow=0;strokeWidth=1;" vertex="1" parent="WIyWlLk6GJQsqaUBKTNV-1">
          <mxGeometry x="-110" y="820" width="160" height="70" as="geometry">
            <mxRectangle x="230" y="140" width="160" height="26" as="alternateBounds" />
          </mxGeometry>
        </mxCell>
        <mxCell id="tYXcIxNK_4_2sW7x9YC5-26" value="Contenu" style="text;align=left;verticalAlign=top;spacingLeft=4;spacingRight=4;overflow=hidden;rotatable=0;points=[[0,0.5],[1,0.5]];portConstraint=eastwest;" vertex="1" parent="tYXcIxNK_4_2sW7x9YC5-25">
          <mxGeometry y="26" width="160" height="26" as="geometry" />
        </mxCell>
        <mxCell id="tYXcIxNK_4_2sW7x9YC5-31" value="" style="line;html=1;strokeWidth=1;align=left;verticalAlign=middle;spacingTop=-1;spacingLeft=3;spacingRight=3;rotatable=0;labelPosition=right;points=[];portConstraint=eastwest;" vertex="1" parent="tYXcIxNK_4_2sW7x9YC5-25">
          <mxGeometry y="52" width="160" height="8" as="geometry" />
        </mxCell>
        <mxCell id="tYXcIxNK_4_2sW7x9YC5-33" value="Signature" style="swimlane;fontStyle=2;align=center;verticalAlign=top;childLayout=stackLayout;horizontal=1;startSize=26;horizontalStack=0;resizeParent=1;resizeLast=0;collapsible=1;marginBottom=0;rounded=0;shadow=0;strokeWidth=1;" vertex="1" parent="WIyWlLk6GJQsqaUBKTNV-1">
          <mxGeometry x="-430" y="516" width="160" height="122" as="geometry">
            <mxRectangle x="230" y="140" width="160" height="26" as="alternateBounds" />
          </mxGeometry>
        </mxCell>
        <mxCell id="tYXcIxNK_4_2sW7x9YC5-38" value="Date Signature" style="text;align=left;verticalAlign=top;spacingLeft=4;spacingRight=4;overflow=hidden;rotatable=0;points=[[0,0.5],[1,0.5]];portConstraint=eastwest;rounded=0;shadow=0;html=0;" vertex="1" parent="tYXcIxNK_4_2sW7x9YC5-33">
          <mxGeometry y="26" width="160" height="26" as="geometry" />
        </mxCell>
        <mxCell id="tYXcIxNK_4_2sW7x9YC5-39" value="" style="line;html=1;strokeWidth=1;align=left;verticalAlign=middle;spacingTop=-1;spacingLeft=3;spacingRight=3;rotatable=0;labelPosition=right;points=[];portConstraint=eastwest;" vertex="1" parent="tYXcIxNK_4_2sW7x9YC5-33">
          <mxGeometry y="52" width="160" height="8" as="geometry" />
        </mxCell>
        <mxCell id="tYXcIxNK_4_2sW7x9YC5-40" value="Signer" style="text;align=left;verticalAlign=top;spacingLeft=4;spacingRight=4;overflow=hidden;rotatable=0;points=[[0,0.5],[1,0.5]];portConstraint=eastwest;" vertex="1" parent="tYXcIxNK_4_2sW7x9YC5-33">
          <mxGeometry y="60" width="160" height="62" as="geometry" />
        </mxCell>
        <mxCell id="tYXcIxNK_4_2sW7x9YC5-41" value="contient" style="text;html=1;resizable=0;points=[];;align=center;verticalAlign=middle;labelBackgroundColor=none;rounded=0;shadow=0;strokeWidth=1;fontSize=12;" connectable="0" vertex="1" parent="WIyWlLk6GJQsqaUBKTNV-1">
          <mxGeometry x="-200" y="710" as="geometry">
            <mxPoint x="52" y="21" as="offset" />
          </mxGeometry>
        </mxCell>
        <mxCell id="tYXcIxNK_4_2sW7x9YC5-42" value="contient" style="text;html=1;resizable=0;points=[];;align=center;verticalAlign=middle;labelBackgroundColor=none;rounded=0;shadow=0;strokeWidth=1;fontSize=12;" connectable="0" vertex="1" parent="WIyWlLk6GJQsqaUBKTNV-1">
          <mxGeometry x="-50" y="670" as="geometry">
            <mxPoint x="52" y="21" as="offset" />
          </mxGeometry>
        </mxCell>
        <mxCell id="tYXcIxNK_4_2sW7x9YC5-43" value="1" style="resizable=0;align=left;verticalAlign=bottom;labelBackgroundColor=none;fontSize=12;" connectable="0" vertex="1" parent="WIyWlLk6GJQsqaUBKTNV-1">
          <mxGeometry x="-360" y="550" as="geometry">
            <mxPoint x="263" y="-11" as="offset" />
          </mxGeometry>
        </mxCell>
        <mxCell id="tYXcIxNK_4_2sW7x9YC5-44" value="1" style="resizable=0;align=left;verticalAlign=bottom;labelBackgroundColor=none;fontSize=12;" connectable="0" vertex="1" parent="WIyWlLk6GJQsqaUBKTNV-1">
          <mxGeometry x="-230" y="550" as="geometry">
            <mxPoint x="263" y="-11" as="offset" />
          </mxGeometry>
        </mxCell>
        <mxCell id="tYXcIxNK_4_2sW7x9YC5-45" value="0..*" style="resizable=0;align=left;verticalAlign=bottom;labelBackgroundColor=none;fontSize=12;" connectable="0" vertex="1" parent="WIyWlLk6GJQsqaUBKTNV-1">
          <mxGeometry x="-530" y="750" as="geometry">
            <mxPoint x="263" y="-11" as="offset" />
          </mxGeometry>
        </mxCell>
        <mxCell id="tYXcIxNK_4_2sW7x9YC5-46" value="0..*" style="resizable=0;align=left;verticalAlign=bottom;labelBackgroundColor=none;fontSize=12;" connectable="0" vertex="1" parent="WIyWlLk6GJQsqaUBKTNV-1">
          <mxGeometry x="-320" y="830" as="geometry">
            <mxPoint x="263" y="-11" as="offset" />
          </mxGeometry>
        </mxCell>
        <mxCell id="tYXcIxNK_4_2sW7x9YC5-51" value="" style="endArrow=none;html=1;rounded=0;exitX=0.475;exitY=0.985;exitDx=0;exitDy=0;exitPerimeter=0;entryX=0;entryY=0.5;entryDx=0;entryDy=0;endFill=0;" edge="1" parent="WIyWlLk6GJQsqaUBKTNV-1" source="zkfFHV4jXpPFQw0GAbJ--5" target="tYXcIxNK_4_2sW7x9YC5-40">
          <mxGeometry width="50" height="50" relative="1" as="geometry">
            <mxPoint x="-62" y="527" as="sourcePoint" />
            <mxPoint x="-260" y="751" as="targetPoint" />
            <Array as="points">
              <mxPoint x="-624" y="607" />
            </Array>
          </mxGeometry>
        </mxCell>
        <mxCell id="tYXcIxNK_4_2sW7x9YC5-53" style="edgeStyle=none;rounded=0;orthogonalLoop=1;jettySize=auto;html=1;exitX=1;exitY=0.5;exitDx=0;exitDy=0;entryX=0;entryY=0.5;entryDx=0;entryDy=0;endArrow=none;endFill=0;" edge="1" parent="WIyWlLk6GJQsqaUBKTNV-1" source="tYXcIxNK_4_2sW7x9YC5-40" target="tYXcIxNK_4_2sW7x9YC5-6">
          <mxGeometry relative="1" as="geometry">
            <Array as="points">
              <mxPoint x="-180" y="607" />
              <mxPoint x="-180" y="485" />
            </Array>
          </mxGeometry>
        </mxCell>
        <mxCell id="tYXcIxNK_4_2sW7x9YC5-54" value="contient" style="text;html=1;resizable=0;points=[];;align=center;verticalAlign=middle;labelBackgroundColor=none;rounded=0;shadow=0;strokeWidth=1;fontSize=12;" connectable="0" vertex="1" parent="WIyWlLk6GJQsqaUBKTNV-1">
          <mxGeometry x="-260" y="570" as="geometry">
            <mxPoint x="52" y="21" as="offset" />
          </mxGeometry>
        </mxCell>
        <mxCell id="tYXcIxNK_4_2sW7x9YC5-55" value="1" style="resizable=0;align=left;verticalAlign=bottom;labelBackgroundColor=none;fontSize=12;" connectable="0" vertex="1" parent="WIyWlLk6GJQsqaUBKTNV-1">
          <mxGeometry x="-530" y="620" as="geometry">
            <mxPoint x="263" y="-11" as="offset" />
          </mxGeometry>
        </mxCell>
        <mxCell id="tYXcIxNK_4_2sW7x9YC5-56" value="1" style="resizable=0;align=left;verticalAlign=bottom;labelBackgroundColor=none;fontSize=12;" connectable="0" vertex="1" parent="WIyWlLk6GJQsqaUBKTNV-1">
          <mxGeometry x="-390" y="516" as="geometry">
            <mxPoint x="263" y="-11" as="offset" />
          </mxGeometry>
        </mxCell>
        <mxCell id="tYXcIxNK_4_2sW7x9YC5-57" value="fait" style="text;html=1;resizable=0;points=[];;align=center;verticalAlign=middle;labelBackgroundColor=none;rounded=0;shadow=0;strokeWidth=1;fontSize=12;" connectable="0" vertex="1" parent="WIyWlLk6GJQsqaUBKTNV-1">
          <mxGeometry x="-660" y="570" as="geometry">
            <mxPoint x="52" y="21" as="offset" />
          </mxGeometry>
        </mxCell>
        <mxCell id="tYXcIxNK_4_2sW7x9YC5-58" value="1..*" style="resizable=0;align=left;verticalAlign=bottom;labelBackgroundColor=none;fontSize=12;" connectable="0" vertex="1" parent="WIyWlLk6GJQsqaUBKTNV-1">
          <mxGeometry x="-827" y="610" as="geometry">
            <mxPoint x="263" y="-11" as="offset" />
          </mxGeometry>
        </mxCell>
        <mxCell id="tYXcIxNK_4_2sW7x9YC5-59" value="1" style="resizable=0;align=left;verticalAlign=bottom;labelBackgroundColor=none;fontSize=12;" connectable="0" vertex="1" parent="WIyWlLk6GJQsqaUBKTNV-1">
          <mxGeometry x="-880" y="490" as="geometry">
            <mxPoint x="263" y="-11" as="offset" />
          </mxGeometry>
        </mxCell>
      </root>
    </mxGraphModel>
  </diagram>
</mxfile>
